solid OpenSCAD_Model
  facet normal 0 0 -1
    outer loop
      vertex -6 -68 0
      vertex -11 -68 0
      vertex -6 -63.5 0
    endloop
  endfacet
  facet normal 0 0 -1
    outer loop
      vertex 10 -61.5 0
      vertex 10 -56.5 0
      vertex 11 -56.5 0
    endloop
  endfacet
  facet normal 0 0 -1
    outer loop
      vertex -8 7 0
      vertex 4 -58.5 0
      vertex -8 -56 0
    endloop
  endfacet
  facet normal 0 0 -1
    outer loop
      vertex 10 -61.5 0
      vertex 11 -56.5 0
      vertex 11 -63.5 0
    endloop
  endfacet
  facet normal 0 -0 -1
    outer loop
      vertex -4 20.5 0
      vertex -4 18.5 0
      vertex -9 7 0
    endloop
  endfacet
  facet normal 0 -0 -1
    outer loop
      vertex -4 14 0
      vertex 4 14 0
      vertex -8 7 0
    endloop
  endfacet
  facet normal 0 0 -1
    outer loop
      vertex -9 33 0
      vertex -4 20.5 0
      vertex -9 7 0
    endloop
  endfacet
  facet normal 0 0 -1
    outer loop
      vertex -4 14 0
      vertex -8 7 0
      vertex -9 7 0
    endloop
  endfacet
  facet normal 0 0 -1
    outer loop
      vertex 10 21.5 0
      vertex 11 21.5 0
      vertex 10 20.5 0
    endloop
  endfacet
  facet normal 0 0 -1
    outer loop
      vertex -4 18.5 0
      vertex 10 20.5 0
      vertex 11 18.5 0
    endloop
  endfacet
  facet normal 0 0 -1
    outer loop
      vertex 10 20.5 0
      vertex 11 21.5 0
      vertex 11 18.5 0
    endloop
  endfacet
  facet normal 0 0 -1
    outer loop
      vertex -4 18.5 0
      vertex -4 20.5 0
      vertex 10 20.5 0
    endloop
  endfacet
  facet normal 0 0 -1
    outer loop
      vertex -9 33 0
      vertex -4 33 0
      vertex -4 20.5 0
    endloop
  endfacet
  facet normal 0 0 -1
    outer loop
      vertex -9 7 0
      vertex -4 18.5 0
      vertex -4 14 0
    endloop
  endfacet
  facet normal 0 0 -1
    outer loop
      vertex -8 -56 0
      vertex 4 -58.5 0
      vertex -6 -58.5 0
    endloop
  endfacet
  facet normal 0 0 -1
    outer loop
      vertex -8 7 0
      vertex 4 14 0
      vertex 4 -58.5 0
    endloop
  endfacet
  facet normal 0 0 -1
    outer loop
      vertex -11 -56 0
      vertex -8 -56 0
      vertex -6 -58.5 0
    endloop
  endfacet
  facet normal 0 0 -1
    outer loop
      vertex -6 -61.5 0
      vertex -11 -56 0
      vertex -6 -58.5 0
    endloop
  endfacet
  facet normal -0 0 -1
    outer loop
      vertex -6 -61.5 0
      vertex -11 -68 0
      vertex -11 -56 0
    endloop
  endfacet
  facet normal -0 0 -1
    outer loop
      vertex 10 -61.5 0
      vertex -6 -63.5 0
      vertex -6 -61.5 0
    endloop
  endfacet
  facet normal -0 0 -1
    outer loop
      vertex -6 -63.5 0
      vertex -11 -68 0
      vertex -6 -61.5 0
    endloop
  endfacet
  facet normal 0 -0 -1
    outer loop
      vertex 10 -61.5 0
      vertex 11 -63.5 0
      vertex -6 -63.5 0
    endloop
  endfacet
  facet normal 0 0 1
    outer loop
      vertex -6 -63.5 10
      vertex -11 -68 10
      vertex -6 -68 10
    endloop
  endfacet
  facet normal 0 0 1
    outer loop
      vertex 11 -56.5 10
      vertex 10 -56.5 10
      vertex 10 -61.5 10
    endloop
  endfacet
  facet normal -0 0 1
    outer loop
      vertex -8 -56 10
      vertex 4 -58.5 10
      vertex -8 7 10
    endloop
  endfacet
  facet normal 0 -0 1
    outer loop
      vertex 11 -63.5 10
      vertex 11 -56.5 10
      vertex 10 -61.5 10
    endloop
  endfacet
  facet normal 0 0 1
    outer loop
      vertex -9 7 10
      vertex -4 18.5 10
      vertex -4 20.5 10
    endloop
  endfacet
  facet normal 0 0 1
    outer loop
      vertex -8 7 10
      vertex 4 14 10
      vertex -4 14 10
    endloop
  endfacet
  facet normal 0 0 1
    outer loop
      vertex -9 7 10
      vertex -4 20.5 10
      vertex -9 33 10
    endloop
  endfacet
  facet normal 0 0 1
    outer loop
      vertex -9 7 10
      vertex -8 7 10
      vertex -4 14 10
    endloop
  endfacet
  facet normal 0 0 1
    outer loop
      vertex 10 20.5 10
      vertex 11 21.5 10
      vertex 10 21.5 10
    endloop
  endfacet
  facet normal 0 0 1
    outer loop
      vertex 11 18.5 10
      vertex 10 20.5 10
      vertex -4 18.5 10
    endloop
  endfacet
  facet normal 0 -0 1
    outer loop
      vertex 11 18.5 10
      vertex 11 21.5 10
      vertex 10 20.5 10
    endloop
  endfacet
  facet normal 0 0 1
    outer loop
      vertex 10 20.5 10
      vertex -4 20.5 10
      vertex -4 18.5 10
    endloop
  endfacet
  facet normal 0 -0 1
    outer loop
      vertex -4 20.5 10
      vertex -4 33 10
      vertex -9 33 10
    endloop
  endfacet
  facet normal 0 -0 1
    outer loop
      vertex -4 14 10
      vertex -4 18.5 10
      vertex -9 7 10
    endloop
  endfacet
  facet normal 0 -0 1
    outer loop
      vertex -6 -58.5 10
      vertex 4 -58.5 10
      vertex -8 -56 10
    endloop
  endfacet
  facet normal 0 -0 1
    outer loop
      vertex 4 -58.5 10
      vertex 4 14 10
      vertex -8 7 10
    endloop
  endfacet
  facet normal 0 0 1
    outer loop
      vertex -6 -58.5 10
      vertex -8 -56 10
      vertex -11 -56 10
    endloop
  endfacet
  facet normal 0 0 1
    outer loop
      vertex -6 -58.5 10
      vertex -11 -56 10
      vertex -6 -61.5 10
    endloop
  endfacet
  facet normal 0 0 1
    outer loop
      vertex -11 -56 10
      vertex -11 -68 10
      vertex -6 -61.5 10
    endloop
  endfacet
  facet normal -0 0 1
    outer loop
      vertex -6 -61.5 10
      vertex -6 -63.5 10
      vertex 10 -61.5 10
    endloop
  endfacet
  facet normal 0 0 1
    outer loop
      vertex -6 -61.5 10
      vertex -11 -68 10
      vertex -6 -63.5 10
    endloop
  endfacet
  facet normal 0 0 1
    outer loop
      vertex -6 -63.5 10
      vertex 11 -63.5 10
      vertex 10 -61.5 10
    endloop
  endfacet
  facet normal -1 0 0
    outer loop
      vertex 10 -61.5 0
      vertex 10 -56.5 10
      vertex 10 -56.5 0
    endloop
  endfacet
  facet normal -1 0 0
    outer loop
      vertex 10 -61.5 0
      vertex 10 -61.5 10
      vertex 10 -56.5 10
    endloop
  endfacet
  facet normal 0 1 0
    outer loop
      vertex -6 -61.5 0
      vertex 10 -61.5 10
      vertex 10 -61.5 0
    endloop
  endfacet
  facet normal 0 1 0
    outer loop
      vertex -6 -61.5 0
      vertex -6 -61.5 10
      vertex 10 -61.5 10
    endloop
  endfacet
  facet normal 1 0 0
    outer loop
      vertex -6 -58.5 0
      vertex -6 -61.5 10
      vertex -6 -61.5 0
    endloop
  endfacet
  facet normal 1 0 -0
    outer loop
      vertex -6 -58.5 0
      vertex -6 -58.5 10
      vertex -6 -61.5 10
    endloop
  endfacet
  facet normal 0 -1 0
    outer loop
      vertex 4 -58.5 0
      vertex -6 -58.5 10
      vertex -6 -58.5 0
    endloop
  endfacet
  facet normal 0 -1 0
    outer loop
      vertex 4 -58.5 0
      vertex 4 -58.5 10
      vertex -6 -58.5 10
    endloop
  endfacet
  facet normal 1 0 0
    outer loop
      vertex 4 14 0
      vertex 4 -58.5 10
      vertex 4 -58.5 0
    endloop
  endfacet
  facet normal 1 0 -0
    outer loop
      vertex 4 14 0
      vertex 4 14 10
      vertex 4 -58.5 10
    endloop
  endfacet
  facet normal 0 1 0
    outer loop
      vertex -4 14 0
      vertex 4 14 10
      vertex 4 14 0
    endloop
  endfacet
  facet normal 0 1 0
    outer loop
      vertex -4 14 0
      vertex -4 14 10
      vertex 4 14 10
    endloop
  endfacet
  facet normal 1 0 0
    outer loop
      vertex -4 18.5 0
      vertex -4 14 10
      vertex -4 14 0
    endloop
  endfacet
  facet normal 1 0 -0
    outer loop
      vertex -4 18.5 0
      vertex -4 18.5 10
      vertex -4 14 10
    endloop
  endfacet
  facet normal 0 -1 0
    outer loop
      vertex 11 18.5 0
      vertex -4 18.5 10
      vertex -4 18.5 0
    endloop
  endfacet
  facet normal 0 -1 0
    outer loop
      vertex 11 18.5 0
      vertex 11 18.5 10
      vertex -4 18.5 10
    endloop
  endfacet
  facet normal 1 0 0
    outer loop
      vertex 11 21.5 0
      vertex 11 18.5 10
      vertex 11 18.5 0
    endloop
  endfacet
  facet normal 1 0 -0
    outer loop
      vertex 11 21.5 0
      vertex 11 21.5 10
      vertex 11 18.5 10
    endloop
  endfacet
  facet normal 0 1 0
    outer loop
      vertex 10 21.5 0
      vertex 11 21.5 10
      vertex 11 21.5 0
    endloop
  endfacet
  facet normal 0 1 0
    outer loop
      vertex 10 21.5 0
      vertex 10 21.5 10
      vertex 11 21.5 10
    endloop
  endfacet
  facet normal -1 0 0
    outer loop
      vertex 10 20.5 0
      vertex 10 21.5 10
      vertex 10 21.5 0
    endloop
  endfacet
  facet normal -1 0 0
    outer loop
      vertex 10 20.5 0
      vertex 10 20.5 10
      vertex 10 21.5 10
    endloop
  endfacet
  facet normal 0 1 0
    outer loop
      vertex -4 20.5 0
      vertex 10 20.5 10
      vertex 10 20.5 0
    endloop
  endfacet
  facet normal 0 1 0
    outer loop
      vertex -4 20.5 0
      vertex -4 20.5 10
      vertex 10 20.5 10
    endloop
  endfacet
  facet normal 1 0 0
    outer loop
      vertex -4 33 0
      vertex -4 20.5 10
      vertex -4 20.5 0
    endloop
  endfacet
  facet normal 1 0 -0
    outer loop
      vertex -4 33 0
      vertex -4 33 10
      vertex -4 20.5 10
    endloop
  endfacet
  facet normal 0 1 0
    outer loop
      vertex -9 33 0
      vertex -4 33 10
      vertex -4 33 0
    endloop
  endfacet
  facet normal 0 1 0
    outer loop
      vertex -9 33 0
      vertex -9 33 10
      vertex -4 33 10
    endloop
  endfacet
  facet normal -1 0 0
    outer loop
      vertex -9 7 0
      vertex -9 33 10
      vertex -9 33 0
    endloop
  endfacet
  facet normal -1 0 0
    outer loop
      vertex -9 7 0
      vertex -9 7 10
      vertex -9 33 10
    endloop
  endfacet
  facet normal 0 -1 0
    outer loop
      vertex -8 7 0
      vertex -9 7 10
      vertex -9 7 0
    endloop
  endfacet
  facet normal 0 -1 0
    outer loop
      vertex -8 7 0
      vertex -8 7 10
      vertex -9 7 10
    endloop
  endfacet
  facet normal -1 0 0
    outer loop
      vertex -8 -56 0
      vertex -8 7 10
      vertex -8 7 0
    endloop
  endfacet
  facet normal -1 0 0
    outer loop
      vertex -8 -56 0
      vertex -8 -56 10
      vertex -8 7 10
    endloop
  endfacet
  facet normal 0 1 0
    outer loop
      vertex -11 -56 0
      vertex -8 -56 10
      vertex -8 -56 0
    endloop
  endfacet
  facet normal 0 1 0
    outer loop
      vertex -11 -56 0
      vertex -11 -56 10
      vertex -8 -56 10
    endloop
  endfacet
  facet normal -1 0 0
    outer loop
      vertex -11 -68 0
      vertex -11 -56 10
      vertex -11 -56 0
    endloop
  endfacet
  facet normal -1 0 0
    outer loop
      vertex -11 -68 0
      vertex -11 -68 10
      vertex -11 -56 10
    endloop
  endfacet
  facet normal 0 -1 0
    outer loop
      vertex -6 -68 0
      vertex -11 -68 10
      vertex -11 -68 0
    endloop
  endfacet
  facet normal 0 -1 0
    outer loop
      vertex -6 -68 0
      vertex -6 -68 10
      vertex -11 -68 10
    endloop
  endfacet
  facet normal 1 0 0
    outer loop
      vertex -6 -63.5 0
      vertex -6 -68 10
      vertex -6 -68 0
    endloop
  endfacet
  facet normal 1 0 -0
    outer loop
      vertex -6 -63.5 0
      vertex -6 -63.5 10
      vertex -6 -68 10
    endloop
  endfacet
  facet normal 0 -1 0
    outer loop
      vertex 11 -63.5 0
      vertex -6 -63.5 10
      vertex -6 -63.5 0
    endloop
  endfacet
  facet normal 0 -1 0
    outer loop
      vertex 11 -63.5 0
      vertex 11 -63.5 10
      vertex -6 -63.5 10
    endloop
  endfacet
  facet normal 1 0 0
    outer loop
      vertex 11 -56.5 0
      vertex 11 -63.5 10
      vertex 11 -63.5 0
    endloop
  endfacet
  facet normal 1 0 -0
    outer loop
      vertex 11 -56.5 0
      vertex 11 -56.5 10
      vertex 11 -63.5 10
    endloop
  endfacet
  facet normal 0 1 0
    outer loop
      vertex 10 -56.5 0
      vertex 11 -56.5 10
      vertex 11 -56.5 0
    endloop
  endfacet
  facet normal 0 1 0
    outer loop
      vertex 10 -56.5 0
      vertex 10 -56.5 10
      vertex 11 -56.5 10
    endloop
  endfacet
endsolid OpenSCAD_Model
